<svg width="512" height="512" viewBox="0 0 512 512" fill="none" xmlns="http://www.w3.org/2000/svg">
<g clip-path="url(#clip0_0_1)">
<circle cx="256" cy="256" r="256" fill="#FCE838"/>
<path d="M216 186.7C192.1 200.5 176 226.4 176 256H32C14.3 256 -0.199988 241.6 2.00001 224.1C10.7 154 47.8 92.7 101.3 52C115.4 41.3 135.1 46.7 144 62L216 186.7ZM256 336C270.6 336 284.2 332.1 296 325.3L368 450.1C376.8 465.4 371.7 485.2 355.4 492C324.8 504.9 291.2 512 256 512C220.8 512 187.1 504.9 156.6 492C140.3 485.1 135.2 465.4 144 450.1L216 325.3C227.8 332.1 241.4 336 256 336ZM480 256H336C336 226.4 319.9 200.5 296 186.7L368 62C376.8 46.7 396.6 41.3 410.7 52C464.3 92.7 501.3 154 510.1 224.1C512.3 241.6 497.7 256 480.1 256H480ZM256 304C229.5 304 208 282.5 208 256C208 229.5 229.5 208 256 208C282.5 208 304 229.5 304 256C304 282.5 282.5 304 256 304Z" fill="black"/>
</g>
<defs>
<clipPath id="clip0_0_1">
<rect width="512" height="512" fill="white"/>
</clipPath>
</defs>
</svg>
