<svg width="529" height="486" viewBox="0 0 529 486" fill="none" xmlns="http://www.w3.org/2000/svg">
<g filter="url(#filter0_d_1_3)">
<path d="M224.221 150.286C200.321 164.086 184.221 189.986 184.221 219.586H40.2214C22.5214 219.586 8.02139 205.186 10.2214 187.686C18.9214 117.586 56.0214 56.286 109.521 15.586C123.621 4.88601 143.321 10.286 152.221 25.586L224.221 150.286ZM264.221 299.586C278.821 299.586 292.421 295.686 304.221 288.886L376.221 413.686C385.021 428.986 379.921 448.786 363.621 455.586C333.021 468.486 299.421 475.586 264.221 475.586C229.021 475.586 195.321 468.486 164.821 455.586C148.521 448.686 143.421 428.986 152.221 413.686L224.221 288.886C236.021 295.686 249.621 299.586 264.221 299.586V299.586ZM488.221 219.586H344.221C344.221 189.986 328.121 164.086 304.221 150.286L376.221 25.586C385.021 10.286 404.821 4.88601 418.921 15.586C472.521 56.286 509.521 117.586 518.321 187.686C520.521 205.186 505.921 219.586 488.321 219.586H488.221ZM264.221 267.586C237.721 267.586 216.221 246.086 216.221 219.586C216.221 193.086 237.721 171.586 264.221 171.586C290.721 171.586 312.221 193.086 312.221 219.586C312.221 246.086 290.721 267.586 264.221 267.586Z" fill="url(#paint0_linear_1_3)"/>
</g>
<defs>
<filter id="filter0_d_1_3" x="0" y="0" width="528.542" height="485.586" filterUnits="userSpaceOnUse" color-interpolation-filters="sRGB">
<feFlood flood-opacity="0" result="BackgroundImageFix"/>
<feColorMatrix in="SourceAlpha" type="matrix" values="0 0 0 0 0 0 0 0 0 0 0 0 0 0 0 0 0 0 127 0" result="hardAlpha"/>
<feOffset/>
<feGaussianBlur stdDeviation="5"/>
<feComposite in2="hardAlpha" operator="out"/>
<feColorMatrix type="matrix" values="0 0 0 0 0 0 0 0 0 0 0 0 0 0 0 0 0 0 0.25 0"/>
<feBlend mode="normal" in2="BackgroundImageFix" result="effect1_dropShadow_1_3"/>
<feBlend mode="normal" in="SourceGraphic" in2="effect1_dropShadow_1_3" result="shape"/>
</filter>
<linearGradient id="paint0_linear_1_3" x1="518.221" y1="9.58599" x2="10.2214" y2="475.586" gradientUnits="userSpaceOnUse">
<stop stop-color="#006089"/>
<stop offset="1" stop-color="#834A97"/>
</linearGradient>
</defs>
</svg>
